<svg width="143" height="40" viewBox="0 0 143 40" fill="none" xmlns="http://www.w3.org/2000/svg">
<path d="M0.78 30.928C0.988 30.3387 1.12667 29.5153 1.196 28.458C1.26533 27.4007 1.3 26.4387 1.3 25.572V10.96H5.46V12.26C6.032 11.74 6.656 11.3413 7.332 11.064C8.02533 10.7693 8.71867 10.622 9.412 10.622C10.6947 10.622 11.8127 10.934 12.766 11.558C13.7367 12.182 14.482 13.0573 15.002 14.184C15.5393 15.2933 15.808 16.5673 15.808 18.006C15.808 19.4447 15.548 20.7187 15.028 21.828C14.508 22.92 13.7627 23.778 12.792 24.402C11.8213 25.026 10.6947 25.338 9.412 25.338C7.852 25.338 6.53467 24.8873 5.46 23.986V25.572C5.46 26.4907 5.408 27.47 5.304 28.51C5.21733 29.5673 5.096 30.3733 4.94 30.928H0.78ZM5.46 20.606C5.824 21.3167 6.28333 21.7847 6.838 22.01C7.41 22.2353 7.93 22.348 8.398 22.348C8.98733 22.348 9.542 22.1573 10.062 21.776C10.5993 21.3773 11.024 20.8487 11.336 20.19C11.6653 19.5313 11.83 18.8033 11.83 18.006C11.83 17.1913 11.6653 16.4547 11.336 15.796C11.024 15.12 10.5993 14.5913 10.062 14.21C9.542 13.8287 8.98733 13.638 8.398 13.638C7.93 13.638 7.41 13.7507 6.838 13.976C6.28333 14.2013 5.824 14.6693 5.46 15.38V20.606ZM23.7331 25.338C22.4158 25.338 21.2631 25.026 20.2751 24.402C19.3045 23.778 18.5505 22.92 18.0131 21.828C17.4931 20.736 17.2331 19.462 17.2331 18.006C17.2331 16.5673 17.4931 15.2933 18.0131 14.184C18.5505 13.0573 19.2958 12.182 20.2491 11.558C21.2198 10.934 22.3465 10.622 23.6291 10.622C24.2185 10.622 24.8078 10.7347 25.3971 10.96C26.0038 11.168 26.5671 11.4627 27.0871 11.844V10.96H31.2471V21.724C31.2471 23.128 31.4205 24.22 31.7671 25H27.8671C27.7458 24.7573 27.6418 24.4453 27.5551 24.064C26.4805 24.9133 25.2065 25.338 23.7331 25.338ZM21.2111 18.006C21.2111 18.8033 21.3671 19.5313 21.6791 20.19C22.0085 20.8487 22.4331 21.3773 22.9531 21.776C23.4905 22.1573 24.0538 22.348 24.6431 22.348C25.0591 22.348 25.5271 22.2613 26.0471 22.088C26.5671 21.8973 27.0178 21.4987 27.3991 20.892V15.068C27.0178 14.4613 26.5671 14.0713 26.0471 13.898C25.5445 13.7247 25.0765 13.638 24.6431 13.638C24.0538 13.638 23.4905 13.8287 22.9531 14.21C22.4331 14.5913 22.0085 15.12 21.6791 15.796C21.3671 16.4547 21.2111 17.1913 21.2111 18.006ZM39.4928 25.312C38.4354 25.364 37.3608 25.2773 36.2688 25.052C35.1941 24.844 34.2581 24.5147 33.4608 24.064V20.32C34.1714 20.84 35.0208 21.2733 36.0088 21.62C37.0141 21.9493 37.8981 22.088 38.6608 22.036C39.1981 22.0013 39.5881 21.8887 39.8308 21.698C40.0734 21.49 40.2121 21.282 40.2468 21.074C40.3334 20.5367 40.2034 20.1293 39.8568 19.852C39.5101 19.5747 38.8601 19.306 37.9068 19.046C36.8494 18.7513 36.0088 18.4133 35.3848 18.032C34.7608 17.6333 34.2841 17.1913 33.9548 16.706C33.6428 16.2033 33.4868 15.5707 33.4868 14.808C33.4868 14.0107 33.6948 13.3 34.1108 12.676C34.5268 12.0347 35.1854 11.532 36.0868 11.168C36.9881 10.804 37.9588 10.622 38.9988 10.622C39.7788 10.622 40.5674 10.7 41.3648 10.856C42.1621 10.9947 42.8294 11.1853 43.3668 11.428V14.782C42.8121 14.5047 42.1534 14.262 41.3908 14.054C40.6454 13.8287 39.9954 13.716 39.4408 13.716C38.2621 13.716 37.6208 14.028 37.5168 14.652C37.4648 15.016 37.6294 15.3367 38.0108 15.614C38.4094 15.8913 38.9728 16.1427 39.7008 16.368C40.7408 16.6973 41.5901 17.0353 42.2488 17.382C42.9248 17.7287 43.4534 18.1793 43.8348 18.734C44.2161 19.2887 44.4068 19.9993 44.4068 20.866C44.4068 22.1487 43.9474 23.1973 43.0288 24.012C42.1101 24.8093 40.9314 25.2427 39.4928 25.312ZM51.9342 25.312C50.8769 25.364 49.8022 25.2773 48.7102 25.052C47.6355 24.844 46.6995 24.5147 45.9022 24.064V20.32C46.6129 20.84 47.4622 21.2733 48.4502 21.62C49.4555 21.9493 50.3395 22.088 51.1022 22.036C51.6395 22.0013 52.0295 21.8887 52.2722 21.698C52.5149 21.49 52.6535 21.282 52.6882 21.074C52.7749 20.5367 52.6449 20.1293 52.2982 19.852C51.9515 19.5747 51.3015 19.306 50.3482 19.046C49.2909 18.7513 48.4502 18.4133 47.8262 18.032C47.2022 17.6333 46.7255 17.1913 46.3962 16.706C46.0842 16.2033 45.9282 15.5707 45.9282 14.808C45.9282 14.0107 46.1362 13.3 46.5522 12.676C46.9682 12.0347 47.6269 11.532 48.5282 11.168C49.4295 10.804 50.4002 10.622 51.4402 10.622C52.2202 10.622 53.0089 10.7 53.8062 10.856C54.6035 10.9947 55.2709 11.1853 55.8082 11.428V14.782C55.2535 14.5047 54.5949 14.262 53.8322 14.054C53.0869 13.8287 52.4369 13.716 51.8822 13.716C50.7035 13.716 50.0622 14.028 49.9582 14.652C49.9062 15.016 50.0709 15.3367 50.4522 15.614C50.8509 15.8913 51.4142 16.1427 52.1422 16.368C53.1822 16.6973 54.0315 17.0353 54.6902 17.382C55.3662 17.7287 55.8949 18.1793 56.2762 18.734C56.6575 19.2887 56.8482 19.9993 56.8482 20.866C56.8482 22.1487 56.3889 23.1973 55.4702 24.012C54.5515 24.8093 53.3729 25.2427 51.9342 25.312ZM66.3516 25.338C64.8263 25.338 63.5176 24.9133 62.4256 24.064C62.3389 24.4453 62.2349 24.7573 62.1136 25H58.2136C58.5603 24.22 58.7336 23.1367 58.7336 21.75V5.006H62.8936V11.87C63.4136 11.4713 63.9683 11.168 64.5576 10.96C65.1643 10.752 65.7623 10.648 66.3516 10.648C67.6343 10.648 68.7523 10.96 69.7056 11.584C70.6763 12.208 71.4216 13.0833 71.9416 14.21C72.4789 15.3193 72.7476 16.5933 72.7476 18.032C72.7476 19.4533 72.4876 20.7187 71.9676 21.828C71.4476 22.9373 70.7023 23.804 69.7316 24.428C68.7609 25.0347 67.6343 25.338 66.3516 25.338ZM62.4516 20.71C62.8156 21.4033 63.2749 21.854 63.8296 22.062C64.3843 22.27 64.8869 22.374 65.3376 22.374C65.9269 22.374 66.4816 22.1833 67.0016 21.802C67.5389 21.4033 67.9636 20.8747 68.2756 20.216C68.6049 19.5573 68.7696 18.8293 68.7696 18.032C68.7696 17.2173 68.6049 16.472 68.2756 15.796C67.9636 15.12 67.5389 14.5913 67.0016 14.21C66.4816 13.8287 65.9269 13.638 65.3376 13.638C64.8869 13.638 64.3843 13.7507 63.8296 13.976C63.2749 14.184 62.8156 14.626 62.4516 15.302V20.71ZM84.6073 25.026C84.3299 24.506 84.1653 23.9513 84.1133 23.362C83.4719 23.934 82.7006 24.4107 81.7993 24.792C80.9153 25.156 80.0399 25.338 79.1733 25.338C77.8386 25.338 76.7726 24.948 75.9753 24.168C75.1953 23.388 74.8053 22.3827 74.8053 21.152V10.96H78.9653V20.45C78.9653 20.9527 79.1299 21.3687 79.4593 21.698C79.8059 22.01 80.2566 22.166 80.8113 22.166C81.1753 22.166 81.6606 22.036 82.2673 21.776C82.8913 21.516 83.4113 21.23 83.8273 20.918V10.96H87.9873V22.322C87.9873 22.894 88.0219 23.3793 88.0913 23.778C88.1606 24.1593 88.2993 24.5753 88.5073 25.026H84.6073ZM95.3308 25.208C93.7708 25.208 92.5922 24.7747 91.7948 23.908C90.9975 23.024 90.5988 21.7327 90.5988 20.034V5.006H94.7588V18.994C94.7588 19.6873 94.8108 20.216 94.9148 20.58C95.0188 20.944 95.1922 21.2213 95.4348 21.412C95.6255 21.568 95.8335 21.672 96.0588 21.724C96.3015 21.7587 96.7175 21.776 97.3068 21.776V25.208H95.3308ZM98.8762 25V5.006H103.036V15.536H103.66L106.884 10.96H111.226L106.728 17.096C107.682 17.9973 108.54 19.0893 109.302 20.372C110.065 21.6547 110.828 23.1973 111.59 25H107.664C106.902 23.336 106.26 22.0707 105.74 21.204C105.238 20.32 104.579 19.514 103.764 18.786H103.036V25H98.8762Z" fill="white"/>
<path d="M124.917 13.9583C123.789 13.9583 122.875 14.8724 122.875 16C122.875 17.1276 123.789 18.0417 124.917 18.0417C126.044 18.0417 126.958 17.1276 126.958 16C126.958 14.8724 126.044 13.9583 124.917 13.9583Z" fill="#AC1E11"/>
<path fill-rule="evenodd" clip-rule="evenodd" d="M117.333 16C117.333 10.5003 117.333 7.75042 119.042 6.04188C120.75 4.33334 123.5 4.33334 129 4.33334C134.5 4.33334 137.25 4.33334 138.958 6.04188C140.667 7.75042 140.667 10.5003 140.667 16C140.667 21.4997 140.667 24.2496 138.958 25.9581C137.25 27.6667 134.5 27.6667 129 27.6667C123.5 27.6667 120.75 27.6667 119.042 25.9581C117.333 24.2496 117.333 21.4997 117.333 16ZM128.607 15.125C128.212 13.4528 126.71 12.2083 124.917 12.2083C122.823 12.2083 121.125 13.906 121.125 16C121.125 18.0941 122.823 19.7917 124.917 19.7917C126.71 19.7917 128.212 18.5473 128.607 16.875H132.208V17.75C132.208 18.2332 132.6 18.625 133.083 18.625C133.567 18.625 133.958 18.2332 133.958 17.75V16.875H134.833C134.994 16.875 135.125 17.0056 135.125 17.1667V18.3333C135.125 18.8166 135.517 19.2083 136 19.2083C136.483 19.2083 136.875 18.8166 136.875 18.3333V17.1667C136.875 16.0391 135.961 15.125 134.833 15.125H128.607Z" fill="#AC1E11"/>
</svg>
